<?xml version="1.0" standalone="no"?><!DOCTYPE svg PUBLIC "-//W3C//DTD SVG 1.1//EN" "http://www.w3.org/Graphics/SVG/1.1/DTD/svg11.dtd"><svg t="1548225384466" class="icon" style="" viewBox="0 0 1024 1024" version="1.1" xmlns="http://www.w3.org/2000/svg" p-id="6629" xmlns:xlink="http://www.w3.org/1999/xlink" width="200" height="200"><defs><style type="text/css"></style></defs><path d="M716.8 264.96 513.92 464 311.68 264.96c-12.8-12.8-33.28-12.8-45.44 0-12.8 12.8-12.8 32.64 0 45.44l224 220.16c6.4 6.4 15.36 9.6 24.32 8.96C522.88 540.16 531.2 536.96 538.24 530.56l224-220.16c12.8-12.8 12.8-32.64 0-45.44C749.44 252.8 728.96 252.8 716.8 264.96zM832 64 192 64C121.6 64 64 121.6 64 192l0 640c0 70.4 57.6 128 128 128l640 0c70.4 0 128-57.6 128-128L960 192C960 121.6 902.4 64 832 64zM896 832c0 35.2-28.8 64-64 64L192 896c-35.2 0-64-28.8-64-64L128 192c0-35.2 28.8-64 64-64l640 0c35.2 0 64 28.8 64 64L896 832zM716.8 520.96l-202.24 199.04L311.68 520.96c-12.8-12.8-33.28-12.8-45.44 0-12.8 12.8-12.8 32.64 0 45.44l224 220.16c6.4 6.4 15.36 9.6 24.32 8.96 8.96 0.64 17.28-2.56 24.32-8.96l224-220.16c12.8-12.8 12.8-32.64 0-45.44C749.44 508.8 728.96 508.8 716.8 520.96z" p-id="6630" fill="#ffcd32"></path></svg>