<?xml version="1.0" standalone="no"?><!DOCTYPE svg PUBLIC "-//W3C//DTD SVG 1.1//EN" "http://www.w3.org/Graphics/SVG/1.1/DTD/svg11.dtd"><svg t="1547192366930" class="icon" style="" viewBox="0 0 1210 1024" version="1.1" xmlns="http://www.w3.org/2000/svg" p-id="3713" xmlns:xlink="http://www.w3.org/1999/xlink" width="236.328125" height="200"><defs><style type="text/css"></style></defs><path d="M678.355738 835.475994l24.081216 0 0 4.153875-24.081216 0 0-4.153875Z" p-id="3714" fill="#707070"></path><path d="M784.313825 809.769455l5.95911 0 0 19.263994-5.95911 0 0-19.263994Z" p-id="3715" fill="#707070"></path><path d="M1121.803334 7.824315 559.317963 7.824315c-48.434136 0-87.68177 38.984498-87.68177 87.086961l0 26.448215c0 48.06697 39.24641 87.088184 87.68177 87.088184L1121.803334 208.447675c48.425569 0 87.716039-39.02611 87.716039-87.088184L1209.519373 94.912499C1209.519373 46.808813 1170.228903 7.824315 1121.803334 7.824315L1121.803334 7.824315zM161.487112 415.594358l-12.707627 0c-48.434136 0-87.680546 38.98817-87.680546 87.094304l0 26.446992c0 48.065746 39.245186 87.086961 87.680546 87.086961l12.707627 0c48.426793 0 87.719711-39.021215 87.719711-87.086961l0-26.448215C249.205599 454.583751 209.915129 415.594358 161.487112 415.594358L161.487112 415.594358zM1121.803334 415.594358 559.317963 415.594358c-48.434136 0-87.68177 38.98817-87.68177 87.094304l0 26.446992c0 48.065746 39.24641 87.086961 87.68177 87.086961L1121.803334 616.222614c48.425569 0 87.716039-39.021215 87.716039-87.086961l0-26.448215C1209.519373 454.583751 1170.228903 415.594358 1121.803334 415.594358L1121.803334 415.594358zM161.487112 823.375416l-12.707627 0c-48.434136 0-87.680546 38.985722-87.680546 87.096752l0 26.439648c0 48.06697 39.245186 87.088184 87.680546 87.088184l12.707627 0c48.426793 0 87.719711-39.021215 87.719711-87.088184l0-26.439648C249.205599 862.362362 209.915129 823.375416 161.487112 823.375416L161.487112 823.375416zM1121.803334 823.375416 559.317963 823.375416c-48.434136 0-87.68177 38.985722-87.68177 87.096752l0 26.439648c0 48.06697 39.24641 87.088184 87.68177 87.088184L1121.803334 1024c48.425569 0 87.716039-39.021215 87.716039-87.088184l0-26.439648C1209.519373 862.362362 1170.228903 823.375416 1121.803334 823.375416L1121.803334 823.375416zM14.421082 164.916434l106.120864 103.774671c18.783006 18.374228 48.862497 18.189421 67.430099-0.403883L374.164544 81.802213c18.783006-18.819723 18.667961-49.33247-0.270479-67.999206l0 0c-18.599423-18.34363-48.458614-18.410944-67.142485-0.159105L157.618403 159.32449 82.437423 92.168543C63.054712 74.845635 33.398687 76.135613 15.593567 95.071605l-2.579955 2.736613C-4.869837 116.831106-4.246878 146.665819 14.421082 164.916434L14.421082 164.916434z" p-id="3716" fill="#707070"></path></svg>