<?xml version="1.0" standalone="no"?><!DOCTYPE svg PUBLIC "-//W3C//DTD SVG 1.1//EN" "http://www.w3.org/Graphics/SVG/1.1/DTD/svg11.dtd"><svg t="1546848317695" class="icon" style="" viewBox="0 0 1024 1024" version="1.1" xmlns="http://www.w3.org/2000/svg" p-id="2077" xmlns:xlink="http://www.w3.org/1999/xlink" width="200" height="200"><defs><style type="text/css"></style></defs><path d="M637.8 416h-256c-17.6 0-32-14.4-32-32s14.4-32 32-32h256c17.7 0 32 14.4 32 32s-14.4 32-32 32zM577 544H381.7c-17.6 0-32-14.3-32-32s14.4-32 32-32H577c17.7 0 32 14.3 32 32s-14.3 32-32 32z m-57.5 287.6C479.6 888.1 368.4 941 331.9 957.2c-4.2 1.8-8.6 2.8-13 2.8-8.1 0-16.2-3.1-22.3-9-9.4-9.1-12.3-23-7.4-35.1 15.8-39 29.8-81.6 33.1-99.8-2.7-4.7-4.3-10.1-4.3-15.9 0-17.7 14.4-32 32-32 12 0 23.2 6 30 15.9 5.6 8.3 14 20.7-3.5 79 47.8-27.2 88-56.4 94.1-73.8 5.3-15 20.7-22.9 35.8-20.2 1.9-0.4 3.6-1.1 5.6-1.1 211.8 0 384-143.6 384-320 0-176.5-172.2-320-384-320S128 271.5 128 448c0 94.9 52.8 185.2 144.9 247.7 14.6 9.9 18.4 29.9 8.5 44.5s-29.9 18.5-44.5 8.5C127 674 64 564.5 64 448 64 236.2 264.9 64 512 64c247 0 448 172.2 448 384 0 209.5-196.9 380.1-440.5 383.6z" fill="#878787" p-id="2078"></path></svg>